<svg xmlns="http://www.w3.org/2000/svg" viewBox="0 0 2407.8 831.34"><defs><style>.cls-1{fill:#918081;}.cls-2{fill:#392d2f;}.cls-3{fill:#fff;}.cls-4{fill:none;}</style></defs><g id="Layer_2" data-name="Layer 2"><g id="Layer_1-2" data-name="Layer 1"><polygon class="cls-1" points="547.87 19.81 1735.98 831.34 112.92 409.57 547.87 19.81"/><polygon class="cls-2" points="1401.92 0 0 658.44 2407.8 787.21 1401.92 0"/><polygon class="cls-3" points="938.35 310.33 932.4 514.82 1007.92 333.24 933.25 185.6 762.7 130.44 559.91 214.45 774.58 183.9 938.35 310.33"/><polygon class="cls-3" points="857.63 485.25 749.02 548.88 887.33 526.82 906 350.33 800.78 238.33 680.29 273.12 836.42 332.51 857.63 485.25"/><polygon class="cls-3" points="566.78 451.96 711.88 571.6 900.25 529.17 786.55 625.9 546.42 541.9 493.81 328.93 653.33 212.68 784.85 216.07 573.57 303.47 566.78 451.96"/><polygon class="cls-3" points="787.8 643.72 553.93 576.45 461.63 437.22 514.82 601.48 755.73 722.72 961.45 636.68 1029.5 387.16 1005.25 344.93 946.59 529.52 787.8 643.72"/><polyline class="cls-3" points="817.75 421.85 787.7 406.48 817.75 421.85 749.78 351.45 821.91 352.84 847.8 460.11 719.73 548.88 716.03 472.59 787.7 406.48"/><polygon class="cls-3" points="754.87 306.6 785.85 341.28 739.15 340.82 729.44 319.09 754.87 306.6"/><line class="cls-3" x1="723.43" y1="329.95" x2="725.74" y2="370.87"/><polygon class="cls-3" points="713.72 317.24 687.36 336.66 740.07 421.85 776.6 400.93 725.74 370.87 723.43 329.95 713.72 317.24"/><polygon class="cls-3" points="702.5 441.62 734.29 421.85 670.72 344.52 641.13 365.32 702.5 441.62"/><polygon class="cls-3" points="630.03 376.42 700.54 446.7 671.82 460.57 616.62 403.47 630.03 376.42"/><polygon class="cls-3" points="575.91 444.68 687.36 537.28 677.69 475.27 594.76 409.49 648.91 299.71 573.4 366.81 575.91 444.68"/><path class="cls-3" d="M989.21,269.93h29.18l13.49,125.41h.55l14.32-125.41h33l14.32,125.41h.55l13.49-125.41h26.15l-19.54,163.18H1077l-13.77-110h-.55l-13.77,110h-40.19Z"/><path class="cls-3" d="M1169.27,269.93h41l31.39,163.18h-30.29l-5.5-32.4v.46h-34.42l-5.5,31.94h-28.09Zm33,109.1-13.49-80.66h-.55L1175.05,379Z"/><path class="cls-3" d="M1256.27,269.93h44.88q23.38,0,34.13,9.21T1346,307.46v10q0,25.42-19.82,32.17v.47q11,2.81,15.56,11.42t4.54,23.08v28.67a92.31,92.31,0,0,0,.55,11.31,24.86,24.86,0,0,0,2.75,8.51h-30.83a32.51,32.51,0,0,1-2.21-7.46,94.69,94.69,0,0,1-.55-12.59V383.22q0-11.19-4.26-15.62T1297,363.17h-10.47v69.94h-30.28Zm41.3,69.93c6,0,10.6-1.32,13.62-4s4.55-7.07,4.55-13.29V310q0-8.85-3.72-12.82t-11.7-4h-13.77v46.62Z"/><path class="cls-3" d="M1359.51,269.93h29.19l13.49,125.41h.55l14.32-125.41h33l14.31,125.41h.55l13.49-125.41h26.16l-19.55,163.18h-37.72l-13.76-110H1433l-13.77,110h-40.2Z"/><path class="cls-3" d="M1520,269.93h30.28V433.11H1520Z"/><path class="cls-3" d="M1582.38,425q-11.43-10.49-11.42-29.61V307.69q0-19.11,11.42-29.6t33.18-10.49q21.75,0,33.18,10.49t11.42,29.6v17.25h-28.63V306.06q0-15.15-15.15-15.15t-15.14,15.15v91.15q0,14.93,15.14,14.92t15.15-14.92V372.27h28.63v23.07q0,19.13-11.42,29.61t-33.18,10.49Q1593.81,435.44,1582.38,425Z"/><path class="cls-3" d="M1678.33,269.93h30.29V338.7l38.54-68.77h30.29l-36.07,59.91L1778,433.11h-31.66l-25.61-72.73-12.11,20.74v52h-30.29Z"/><path class="cls-3" d="M1115.58,460.39h41L1188,623.57H1157.7l-5.5-32.4v.47h-34.42l-5.5,31.93h-28.09Zm33,109.1-13.49-80.66h-.55l-13.22,80.66Z"/><path class="cls-3" d="M1202.58,460.39h45.7q23.4,0,34.14,9.21t10.74,28.33v6.52q0,12.59-4.82,20.52t-14.73,11.42v.46q22.58,6.54,22.58,34v14q0,18.87-11.7,28.79t-34.28,9.9h-47.63Zm42.12,66.44q9.09,0,13.63-4t4.54-13.29v-9.09q0-8.85-3.71-12.82t-11.7-4h-14.6v43.12Zm5.51,73.43q8,0,11.84-3.61t3.85-12.47V570q0-11.19-4.54-15.5t-15-4.32h-13.49v50.12Z"/><path class="cls-3" d="M1323.44,615.18q-11.84-10.73-11.84-30.3V499.09q0-19.57,11.84-30.3t34.14-10.73q22.31,0,34.14,10.73t11.84,30.3v85.79q0,19.57-11.84,30.3t-34.14,10.72Q1335.28,625.9,1323.44,615.18Zm49.84-28.67V497.46q0-16.08-15.7-16.09t-15.69,16.09v89.05q0,16.08,15.69,16.08T1373.28,586.51Z"/><path class="cls-3" d="M1434.4,615.3q-11.57-10.6-11.57-30.42V460.39h30.29V586.74q0,8.4,4,12.12t11.43,3.73q7.43,0,11.42-3.73t4-12.12V460.39h29.19V584.88q0,19.82-11.57,30.42T1468,625.9Q1446,625.9,1434.4,615.3Z"/><path class="cls-3" d="M1534.61,460.39h44.88q23.4,0,34.14,9.21t10.74,28.33v10q0,25.41-19.83,32.17v.47q11,2.79,15.56,11.42t4.54,23.08v28.67a92.24,92.24,0,0,0,.55,11.3,24.81,24.81,0,0,0,2.76,8.51h-30.84a32.45,32.45,0,0,1-2.2-7.46,94.51,94.51,0,0,1-.55-12.58V573.69q0-11.19-4.27-15.62t-14.73-4.43H1564.9v69.93h-30.29Zm41.3,69.94q9.09,0,13.63-4c3-2.65,4.54-7.07,4.54-13.29V500.49q0-8.85-3.72-12.82c-2.47-2.64-6.38-4-11.7-4H1564.9v46.62Z"/><polygon class="cls-3" points="1026.65 600.26 1026.65 460.39 1015.11 460.39 996.37 523.22 996.37 623.57 1076.49 623.57 1076.49 600.26 1026.65 600.26"/><line class="cls-4" x1="1016.16" y1="450.17" x2="1031.88" y2="395.34"/><line class="cls-4" x1="991.47" y1="288.79" x2="1031.88" y2="395.34"/><line class="cls-4" x1="1016.16" y1="450.17" x2="989.21" y2="383.58"/></g></g></svg>